<?xml version="1.0" encoding="UTF-8"?>
<!DOCTYPE svg PUBLIC "-//W3C//DTD SVG 1.1//EN" "http://www.w3.org/Graphics/SVG/1.1/DTD/svg11.dtd">
<!-- Creator: CorelDRAW 2020 (64 Bit) -->
<svg xmlns="http://www.w3.org/2000/svg" xml:space="preserve" width="57.5732mm" height="46.1432mm" version="1.1" style="shape-rendering:geometricPrecision; text-rendering:geometricPrecision; image-rendering:optimizeQuality; fill-rule:evenodd; clip-rule:evenodd"
viewBox="0 0 5757.32 4614.32"
 xmlns:xlink="http://www.w3.org/1999/xlink"
 xmlns:xodm="http://www.corel.com/coreldraw/odm/2003">
 <defs>
  <style type="text/css">
   <![CDATA[
    .fil0 {fill:#A9ABAE}
   ]]>
  </style>
 </defs>
 <g id="Camada_x0020_1">
  <metadata id="CorelCorpID_0Corel-Layer"/>
  <symbol id="template">
    <path class="fil0" d="M5518.3 2205.02l-192.78 299.83 -1392.68 -528.12c-23.38,-36.28 -62.14,-96.32 -86.96,-148.73 -30.71,-64.85 -53.12,-139.99 -72.24,-207.29 -13.83,-48.66 -22.69,-113.3 -28.31,-163.82 -16.35,-146.74 -7.2,-285.81 47.25,-457.83l1725.72 1205.96z"/>
    <path class="fil0" d="M237.06 2205.02l192.78 299.83 1392.68 -528.12c23.38,-36.29 62.14,-96.32 86.96,-148.74 30.71,-64.85 53.12,-139.99 72.24,-207.28 13.83,-48.67 22.69,-113.3 28.31,-163.82 16.35,-146.74 7.2,-285.82 -47.25,-457.83l-1725.72 1205.96z"/>
  </symbol>
 </g>
</svg>
