<?xml version="1.0" encoding="UTF-8"?>
<!DOCTYPE svg PUBLIC "-//W3C//DTD SVG 1.1//EN" "http://www.w3.org/Graphics/SVG/1.1/DTD/svg11.dtd">
<!-- Creator: CorelDRAW 2020 (64 Bit) -->
<svg xmlns="http://www.w3.org/2000/svg" xml:space="preserve" width="91.44mm" height="45.7198mm" version="1.1" style="shape-rendering:geometricPrecision; text-rendering:geometricPrecision; image-rendering:optimizeQuality; fill-rule:evenodd; clip-rule:evenodd"
viewBox="0 0 9144 4571.98"
 xmlns:xlink="http://www.w3.org/1999/xlink"
 xmlns:xodm="http://www.corel.com/coreldraw/odm/2003">
 <defs>
  <style type="text/css">
   <![CDATA[
    .str0 {stroke:#FEFEFE;stroke-width:105.83;stroke-miterlimit:22.9256;stroke-dasharray:211.660000 105.830000}
    .fil1 {fill:none}
    .fil0 {fill:#FEFEFE}
    .fil2 {fill:#FEFEFE;fill-rule:nonzero}
   ]]>
  </style>
 </defs>
 <g id="Camada_x0020_1">
  <metadata id="CorelCorpID_0Corel-Layer"/>
  <g id="_2104090005504">
   <g>
    <path class="fil0" d="M3850.01 2232.55l603.56 -229.19c-0.16,2.58 -4.54,47.94 -6.5,133.44 -5.81,256.36 -26.94,739.59 -32.55,962.41 -5.6,222.85 -8.42,412.93 -8.42,570.22l-280.45 -2.82c-54.78,0 -167.15,0.97 -336.62,2.82l60.98 -1436.88zm-1737.05 1269.27l-334.76 -964.9 -263.1 -741.12 658.71 188.21 379.72 1259.59 661.03 -1259.59 570.25 -188.21c-93.19,173.68 -199,376.89 -317.44,609.57l-473.78 938.69c-19.67,38.98 -84.33,158.19 -133.04,223.58 -55.4,74.32 -176.63,92.84 -232.77,91.94l-291.86 -0.66c-38.82,-0.1 -196.12,-66.59 -222.96,-157.1zm2717.74 -1072.1l42.14 -633.92c169,1.89 301.51,2.82 397.96,2.82 79.59,0 201.79,-0.93 366.12,-2.82 11.71,78.66 21.99,138.58 29.96,179.32 8.42,40.71 28.56,120.3 60.84,238.75 32.32,118.48 58.53,220.99 78.2,307.12 19.68,86.63 48.67,234.57 88.02,444.32 40.25,-143.73 76.78,-267.35 109.55,-370.8 32.78,-103.48 73.96,-220.99 123.13,-352.54 49.17,-132.01 80.52,-218.18 94.09,-258.88 13.14,-40.75 30.92,-103.02 53.85,-187.29 137.65,1.89 272.02,2.82 404.03,2.82 89.88,0 214.43,-0.93 374.08,-2.82 -17.79,308.52 -31.32,573.5 -35.1,794.97l-16.13 938.09c-0.53,31.12 -12.64,130.89 -116.05,130.89l-269.87 0c-32.94,0 -114.49,-61.48 -112.54,-133.01l12.21 -445.35c8.5,-309.94 16.39,-507.94 16.39,-593.64 0,-37.43 -0.93,-89.88 -2.79,-156.83l-281.34 1168.21c-19.64,81.59 -122.39,167.65 -209.45,166.39l-334.4 -4.88c-63.43,-13.17 -141.93,-89.41 -157.36,-170.46l-128.89 -575.9 -98.81 -402.18c-3.28,-15.43 -7.49,-34.64 -12.17,-57.56 -4.68,-22.96 -11.68,-63.21 -22,-120.8l-34.17 380.15 -53.68 848.35c-1.4,58.52 -20.11,114.69 -78.57,113.7l-254.57 -4.32c-32.28,-0.56 -106.96,-48.77 -102.15,-126.17l69.47 -1115.73zm2505.2 1239.71l27.64 -351.58 36.5 -686.34 14.99 -485.52c0.93,-52.42 1.4,-104.41 1.4,-156.83 0,-39.32 -0.47,-103.48 -1.4,-193.36 120.77,2.82 217.68,4.21 290.74,4.21 70.23,0 166.65,-2.32 288.84,-6.07 122.69,-4.21 226.14,-6.57 311.34,-6.57 122.19,0 213.03,7.96 271.56,23.42 58.99,15.43 112.37,40.25 159.65,73.49 47.74,33.71 87.06,72.56 117.98,117.52 30.89,44.95 54.31,95.98 69.74,153.08 15.46,57.13 23.42,115.66 23.42,175.11 0,122.66 -29.49,235.03 -88.95,336.62 -59.45,101.59 -142.79,177.43 -250.49,227.99 -107.66,50.1 -228.92,75.38 -362.83,75.38 -49.63,0 -273.61,-2.72 -338.21,-13.93 -1.39,-2.02 -2.82,-3.98 -4.21,-5.94 -5.38,181.95 -8.23,363.33 -8.23,540.96l0 178.36 -273.42 -2.82c-38.38,0 -133.9,0.97 -286.06,2.82zm581.51 -1078.8c0.79,-0.96 1.52,-2.02 2.09,-3.22 40.28,7.5 147.24,6.18 190.77,6.18 92.23,0 160.58,-22.5 206,-66.96 44.92,-44.49 67.41,-98.8 67.41,-162.93 0,-31.35 -5.14,-58.99 -14.99,-83.34 -10.29,-24.36 -26.21,-44 -48.21,-59.92 -21.53,-15.46 -45.88,-25.28 -72.56,-29.96 -26.24,-4.68 -56.66,-7.04 -90.37,-7.04 -32.78,0 -66.96,0.93 -102.52,2.82l-115.19 7.97c-8.63,130.52 -16.16,263.06 -22.43,396.4z"/>
    <g>
     <path class="fil0" d="M1038.03 3271c0,0 -1173.48,-843.43 -407.19,-1639.19 766.29,-795.76 4209.27,-202.22 4209.27,-202.22 0,0 -3569.47,-659.9 -4394.18,154.69 -824.71,814.59 659.2,1707.82 592.1,1686.72z"/>
     <path class="fil1 str0" d="M1835.63 2137.8c0,0 618.61,-1265.58 3280.58,-1023.07"/>
    </g>
    <g>
     <path class="fil2" d="M1642.6 2435.41l1427.01 -784.6 1.05 -1.12c0.18,-0.2 0.32,-0.38 0.51,-0.56 16.76,-10.46 27.13,-28.05 29,-46.79 1.55,-7.75 1.2,-15.66 -1.62,-23.78l23.29 45.27 -50.39 -97.98c-4.59,-5.93 -10.2,-10.2 -16.57,-13.16 -16.35,-9.77 -35.66,-7.06 -55.48,-4.27l-5.62 0.79 -1368.55 752.72c-216.61,-298.22 -451.94,-299.08 -693.04,-209.04 -256.08,169.88 -324.85,397.43 -222.39,677.77 7.8,17.7 18.65,32.99 32.19,45 22.5,19.98 45.4,37.56 82.76,43.93 34.87,5.95 73.87,-0.28 122.26,-28.32l632.62 -325.39 1.05 1.47 61.92 -31.94zm1427.01 -784.6l52.23 -26.98 -52.25 26.99 0.02 -0.01zm1.84 -124.96l-23.03 -44.73 23.04 44.75 -0.01 -0.02zm-1602.63 816.54l-601.98 309.58c-48.58,-139.26 -52.88,-365.4 132.62,-474.79 189.48,-78.78 375.5,-30.23 469.36,165.21z"/>
     <path class="fil2" d="M1561.19 2399.54l740.3 -1450.49 1.09 -1.08c0.19,-0.19 0.37,-0.34 0.54,-0.53 9.94,-17.08 27.21,-27.98 45.88,-30.42 7.7,-1.79 15.61,-1.69 23.82,0.88l-45.96 -21.88 99.47 47.34c6.08,4.41 10.52,9.88 13.68,16.17 10.26,16.04 8.15,35.42 5.96,55.32l-0.61 5.64 -710.24 1391.07c304.76,207.33 312.86,442.52 230.28,686.27 -161.92,261.2 -387.24,336.94 -670.6,243.15 -17.93,-7.25 -33.55,-17.62 -45.97,-30.78 -20.66,-21.88 -38.95,-44.23 -46.46,-81.37 -7.02,-34.67 -1.99,-73.84 24.54,-123.08l305.77 -642.34 -1.51 -1 30.02 -62.87zm740.3 -1450.49l25.37 -53.03 -25.38 53.05 0.01 -0.02zm124.84 -5.69l45.43 21.65 -45.44 -21.65 0.01 0zm-766.81 1627.01l-290.9 611.23c140.69,44.26 366.85,41.61 470.48,-147.17 72.91,-191.82 18.66,-376.25 -179.58,-464.06z"/>
    </g>
    <polygon class="fil0" points="4456.53,1567.47 3875.29,1780.24 3843.17,2158.93 4438.31,1931.39 "/>
   </g>
  </g>
 </g>
</svg>
