<?xml version="1.0" encoding="UTF-8"?>
<!DOCTYPE svg PUBLIC "-//W3C//DTD SVG 1.1//EN" "http://www.w3.org/Graphics/SVG/1.1/DTD/svg11.dtd">
<!-- Creator: CorelDRAW 2020 (64 Bit) -->
<svg xmlns="http://www.w3.org/2000/svg" xml:space="preserve" width="57.5732mm" height="46.1432mm" version="1.1" style="shape-rendering:geometricPrecision; text-rendering:geometricPrecision; image-rendering:optimizeQuality; fill-rule:evenodd; clip-rule:evenodd"
viewBox="0 0 5757.32 4614.32"
 xmlns:xlink="http://www.w3.org/1999/xlink"
 xmlns:xodm="http://www.corel.com/coreldraw/odm/2003">
 <defs>
  <style type="text/css">
   <![CDATA[
   
    .fil1 {fill:#606062}
   ]]>
  </style>
 </defs>
 <g id="template">
  <metadata id="CorelCorpID_0Corel-Layer"/>
  <path class="fil0" d="M3263.39 805.14l-139.68 -46.74c-56.27,2.92 -109.36,-6.13 -161.33,-13.02 -26.29,-3.24 -58.6,-7 -86.29,-7.04 -26.29,-0.05 -57.21,3.36 -85.29,7.17l-2.06 -0.19c-51.73,6.8 -104.63,15.73 -160.76,13.1l-137.38 43.49 -0.29 1.18 -0.84 3.43 -0.79 3.44 -0.76 3.46 -0.74 3.46 -0.7 3.48 -0.66 3.48 -0.64 3.51 -0.61 3.5 -0.57 3.52 -0.53 3.53 -0.5 3.54 -0.48 3.55 -0.43 3.55 -0.4 3.57 -0.37 3.59 -0.33 3.58 -0.3 3.59 -0.26 3.61 -0.23 3.62 -0.19 3.61 -0.17 3.64 -0.12 3.64 -0.09 3.65 -0.05 3.65 -0.02 3.71 0.51 12.88 1.54 19.44 2.53 19.16 3.49 18.86 4.44 18.54 5.36 18.19 6.25 17.81 7.11 17.42 7.96 16.98 8.77 16.55 9.56 16.06 10.33 15.57 11.06 15.05 11.79 14.49 12.47 13.93 13.14 13.34 13.77 12.72 14.4 12.07 14.97 11.4 15.55 10.72 16.08 9.99 16.59 9.26 17.09 8.49 17.56 7.7 17.98 6.89 18.41 6.05 18.78 5.18 11.4 2.56 -0.12 0.49 1.08 0.22c65.35,11.81 125.7,11.04 181.05,-2.3l4.31 -0.97 18.79 -5.18 18.4 -6.05 17.99 -6.89 17.55 -7.7 17.08 -8.49 16.6 -9.26 16.09 -9.99 15.54 -10.72 14.98 -11.4 14.39 -12.07 13.77 -12.72 13.14 -13.34 12.47 -13.93 11.79 -14.49 11.07 -15.05 10.33 -15.57 9.55 -16.06 8.77 -16.55 7.96 -16.98 7.12 -17.42 6.25 -17.81 5.35 -18.19 4.44 -18.54 3.49 -18.86 2.53 -19.16 1.54 -19.44 0.51 -19.65 -0.02 -3.7 -0.05 -3.66 -0.09 -3.65 -0.13 -3.64 -0.15 -3.64 -0.19 -3.61 -0.24 -3.62 -0.26 -3.61 -0.3 -3.59 -0.33 -3.58 -0.37 -3.58 -0.4 -3.58 -0.43 -3.55 -0.48 -3.55 -0.5 -3.54 -0.53 -3.53 -0.57 -3.52 -0.6 -3.5 -0.64 -3.51 -0.67 -3.48 -1.89 -8.45z"/>
  <path class="fil1" d="M2671 1000.54l-4.3 -7.11 -4.04 -7.26 -3.78 -7.41 -3.52 -7.55 -3.24 -7.7 -2.96 -7.83 -2.68 -7.95 -2.38 -8.08 -2.08 -8.19 -1.78 -8.3 -1.47 -8.41 -1.15 -8.5 -0.84 -8.6 -0.5 -8.68 -0.08 -4.01 2.62 0.02 7.61 0.1 7.6 0.16 7.61 0.22 7.62 0.27 7.61 0.31 7.61 0.37 7.63 0.4 7.62 0.44 7.63 0.47 7.63 0.49 7.63 0.52 7.64 0.54 7.64 0.55 7.64 0.56 7.64 0.56 7.64 0.57 7.66 0.56 7.65 0.55 7.66 0.53 7.65 0.52 7.66 0.5 7.67 0.47 7.66 0.44 7.67 0.41 7.68 0.37 7.68 0.32 7.67 0.28 7.69 0.21 7.69 0.17 7.68 0.1 7.69 0.04 7.69 -0.04 7.69 -0.1 7.69 -0.17 7.68 -0.21 7.68 -0.28 7.67 -0.32 7.68 -0.37 7.66 -0.41 7.67 -0.44 7.67 -0.47 7.66 -0.5 7.65 -0.52 7.66 -0.53 7.66 -0.55 7.65 -0.56 7.65 -0.57 7.63 -0.56 7.65 -0.56 7.64 -0.55 7.63 -0.54 7.64 -0.52 7.62 -0.49 7.64 -0.47 7.61 -0.44 7.62 -0.4 7.63 -0.37 7.61 -0.31 7.62 -0.27 7.6 -0.22 7.61 -0.16 7.6 -0.1 2.61 -0.02 -0.08 4.29 -0.54 8.96 -0.88 8.87 -1.23 8.76 -1.57 8.66 -1.89 8.55 -2.21 8.43 -2.54 8.3 -2.84 8.19 -3.14 8.03 -3.44 7.9 -3.74 7.74 -4.01 7.6 -4.29 7.42 -4.56 7.26c-111.06,163.07 -305.82,151.96 -407.59,-3.38z"/>
  <path class="fil0" d="M3079.32 758.45c-70.65,-3.17 -136.91,-20.03 -203.23,-20.11 -66.31,-0.09 -132.68,16.6 -203.56,19.96l-1.5 2.33 -2.42 3.93 -2.35 3.98 -2.26 4.02 -2.18 4.07 -2.1 4.12 -2.03 4.17 -1.93 4.2 -1.86 4.26 -1.76 4.29 -1.68 4.33 -1.6 4.38 -1.5 4.41 -1.42 4.45 -1.32 4.49 -1.24 4.52 -1.14 4.57 -1.04 4.59 -0.96 4.63 -0.85 4.65 -0.76 4.69 -0.67 4.72 -0.55 4.75 -0.47 4.78 -0.36 4.81 -0.26 4.82 -0.16 4.86 -0.05 4.86 0 0.04c79.92,0.46 159.84,12.01 239.77,12.01 79.92,0 159.84,-11.55 239.77,-12.01l0 -0.04 -0.05 -4.86 -0.16 -4.86 -0.26 -4.82 -0.36 -4.81 -0.46 -4.78 -0.57 -4.75 -0.66 -4.72 -0.76 -4.69 -0.85 -4.66 -0.96 -4.62 -1.04 -4.59 -1.14 -4.57 -1.23 -4.52 -1.33 -4.49 -1.42 -4.45 -1.5 -4.41 -1.6 -4.38 -1.67 -4.33 -1.77 -4.29 -1.86 -4.26 -1.93 -4.2 -2.02 -4.17 -2.11 -4.12 -2.18 -4.07 -2.26 -4.02 -2.35 -3.99 -2.42 -3.92 -1.41 -2.18z"/>
 </g>
</svg>
