<?xml version="1.0" encoding="UTF-8"?>
<!DOCTYPE svg PUBLIC "-//W3C//DTD SVG 1.1//EN" "http://www.w3.org/Graphics/SVG/1.1/DTD/svg11.dtd">
<!-- Creator: CorelDRAW 2020 (64 Bit) -->
<svg xmlns="http://www.w3.org/2000/svg" xml:space="preserve" width="57.5732mm" height="46.1432mm" version="1.1" style="shape-rendering:geometricPrecision; text-rendering:geometricPrecision; image-rendering:optimizeQuality; fill-rule:evenodd; clip-rule:evenodd"
viewBox="0 0 5757.32 4614.32"
 xmlns:xlink="http://www.w3.org/1999/xlink"
 xmlns:xodm="http://www.corel.com/coreldraw/odm/2003">
 <defs>
  <style type="text/css">
   <![CDATA[
    .fil1 {fill:#E6E7E8}
    .fil2 {fill:#4B4B4D}
    
   ]]>
  </style>
 </defs>
 <g id="template">
  <metadata id="CorelCorpID_0Corel-Layer"/>
  <path class="fil0" d="M2450.75 824.1l63.16 -53.27c-5.47,189.56 300.59,295.33 189.49,495.95 -98.14,-60.38 -157.2,-153.14 -206.7,-254.41 -22.12,-55.45 -36.8,-122.2 -45.73,-186.7l-0.7 0.2 0.48 -1.77z"/>
  <path class="fil0" d="M3300.67 831.46l-58.76 -50.12c-123.6,210.01 -378.11,295.6 -200.96,488.36 99.1,-58.67 159.64,-150.39 210.75,-250.79 23.01,-55.05 38.76,-121.54 48.72,-185.88l0.71 0.21 -0.46 -1.78z"/>
  <path class="fil1" d="M2569.28 1006.84c16.98,29.2 123.29,185.86 134.12,259.94l48.74 25 232.15 -2.63 56.66 -19.45c-6.22,-97.62 248.59,-377.05 200.96,-488.36l-101.79 -86.97 -529.77 -4.92 -96.44 81.38c-20.01,72.27 -5.5,144.24 55.37,236.01z"/>
  <polygon class="fil0" points="2916.47,1216.85 3005.25,1217.63 2984.29,1289.15 2752.14,1291.78 2722.21,1215.17 "/>
  <polygon class="fil1" points="2887.01,886.98 3131.26,729.23 3140.12,694.37 2610.36,689.46 2618.85,724.2 "/>
  <path class="fil0" d="M2869.38 818.63c6.81,-0.84 317.82,31.11 322.58,17.01 5.58,-16.49 -1.54,-41.34 0,-47.31l-60.7 -59.1 -512.41 -5.03 -72.74 45.65c-3.23,12.5 -2.4,83.2 14.31,86.72l308.96 -37.94z"/>
  <path class="fil2" d="M2722.21 1215.17l283.04 2.46c-13.71,-0.12 169.07,-240.04 186.71,-382 0,0 -304.31,-113.74 -642.74,-5.48 2.25,94.09 145.88,309.32 172.99,385.02z"/>
 </g>
</svg>
