<?xml version="1.0" encoding="UTF-8"?>
<!DOCTYPE svg PUBLIC "-//W3C//DTD SVG 1.1//EN" "http://www.w3.org/Graphics/SVG/1.1/DTD/svg11.dtd">
<!-- Creator: CorelDRAW 2020 (64 Bit) -->
<svg xmlns="http://www.w3.org/2000/svg" xml:space="preserve" width="57.5732mm" height="46.1432mm" version="1.1" style="shape-rendering:geometricPrecision; text-rendering:geometricPrecision; image-rendering:optimizeQuality; fill-rule:evenodd; clip-rule:evenodd"
viewBox="0 0 5757.32 4614.32"
 xmlns:xlink="http://www.w3.org/1999/xlink"
 xmlns:xodm="http://www.corel.com/coreldraw/odm/2003">
 <defs>
  <style type="text/css">
   <![CDATA[
    .fil1 {fill:#4B4B4D}
   ]]>
  </style>
 </defs>
 <g id="template">
  <metadata id="CorelCorpID_0Corel-Layer"/>
  <g id="_2202673082176">
   <path class="fil0" d="M2886.36 1266.57c-109.97,-4.28 -317.55,-97.79 -344.81,-465.06 253.11,103.7 449.82,65.14 673.5,-0.25 -19,322.47 -218.72,469.57 -328.69,465.31z"/>
   <path class="fil0" d="M2882.01 1184.38c-95.64,-3.16 -270.6,-93.73 -294.32,-365.3 203.51,70.12 341.81,56.8 579.51,-4.18 -16.52,238.44 -189.55,372.65 -285.19,369.48z"/>
   <path class="fil1" d="M2884.22 1218.4c-93.48,-3.15 -266.41,-74.07 -289.6,-345.65 260.65,51.5 393.55,50.9 565.23,-0.43 -16.15,238.43 -182.15,349.24 -275.63,346.08z"/>
  </g>
 </g>
</svg>
