<?xml version="1.0" encoding="UTF-8"?>
<!DOCTYPE svg PUBLIC "-//W3C//DTD SVG 1.1//EN" "http://www.w3.org/Graphics/SVG/1.1/DTD/svg11.dtd">
<!-- Creator: CorelDRAW 2020 (64 Bit) -->
<svg xmlns="http://www.w3.org/2000/svg" xml:space="preserve" width="57.5732mm" height="46.1432mm" version="1.1" style="shape-rendering:geometricPrecision; text-rendering:geometricPrecision; image-rendering:optimizeQuality; fill-rule:evenodd; clip-rule:evenodd"
viewBox="0 0 5757.32 4614.32"
 xmlns:xlink="http://www.w3.org/1999/xlink"
 xmlns:xodm="http://www.corel.com/coreldraw/odm/2003">
 <defs>
  <style type="text/css">
   <![CDATA[
    .str0 {stroke:#606062;stroke-width:7.62;stroke-miterlimit:22.9256}
    .fil3 {fill:none}
    .fil1 {fill:#E6E7E8}
    .fil2 {fill:#606062}
   ]]>
  </style>
    <clipPath id="id0">
     <path d="M3110.91 872.06c-165.85,-26.12 -322.89,-24.12 -472.82,0.56 85.43,131.81 190.18,259.06 227.16,417.79l18.14 0c37.03,-158.95 142.02,-286.33 227.52,-418.35z"/>
    </clipPath>
    <clipPath id="id1">
     <path d="M3110.91 872.06c-165.85,-26.12 -322.89,-24.12 -472.82,0.56 85.43,131.81 190.18,259.06 227.16,417.79l18.14 0c37.03,-158.95 142.02,-286.33 227.52,-418.35z"/>
    </clipPath>
 </defs>
 <g id="template">
  <metadata id="CorelCorpID_0Corel-Layer"/>
  <g id="_2202730401664">
   <path class="fil0" d="M3178.16 761.93l-22.72 -5.87c-195.04,-14.32 -382.35,-13.82 -563.1,0.03l-18.52 4.78c18.76,38.57 40.79,75.5 64.27,111.74 150.99,-24.84 309.18,-26.7 476.32,0 23.27,-35.9 45.11,-72.49 63.75,-110.68z"/>
   <g>
    <path class="fil0" d="M2573.62 760.46l-112.79 65.7 292.37 464.26 113.11 0c-45.83,-204.99 -205.08,-349.52 -292.69,-529.96z"/>
    <path class="fil0" d="M3175.02 760.46l122.67 65.6 -302.26 464.36 -113.11 0c45.83,-204.99 205.09,-349.52 292.7,-529.96z"/>
   </g>
   <path class="fil1" d="M2573.82 760.87l-25.67 14.43c88.37,176.75 240.14,313.16 285.3,515.11l32.87 0c-45.84,-204.98 -204.89,-349.1 -292.5,-529.54z"/>
   <path class="fil1" d="M3175.02 760.46l25.96 13.88c-88.37,176.75 -240.63,314.12 -285.79,516.07l-32.87 0c45.83,-204.98 205.09,-349.51 292.7,-529.95z"/>
   <path class="fil1" d="M2592.34 785.74c180.76,-13.85 368.06,-14.35 563.1,-0.02l5.93 1.53c4.61,-8.66 9.08,-17.39 13.36,-26.21l-19.29 -4.98c-195.04,-14.32 -382.34,-13.82 -563.1,0.03l-18.52 4.78c4.28,8.82 8.74,17.55 13.35,26.2l5.17 -1.33z"/>
   <path class="fil2" d="M3110.91 872.06c-165.85,-26.12 -322.89,-24.12 -472.82,0.56 85.43,131.81 190.18,259.06 227.16,417.79l18.14 0c37.03,-158.95 142.02,-286.33 227.52,-418.35z"/>
   <g style="clip-path:url(#id0)">
    <g>
    </g>
   </g>
   <path id="1" class="fil3" d="M3110.91 872.06c-165.85,-26.12 -322.89,-24.12 -472.82,0.56 85.43,131.81 190.18,259.06 227.16,417.79l18.14 0c37.03,-158.95 142.02,-286.33 227.52,-418.35z"/>
   <g style="clip-path:url(#id1)">
    <path id="2" class="fil3 str0" d="M2638.09 853.27l472.82 437.14m0 -437.14l-472.82 437.14"/>
   </g>
  </g>
 </g>
</svg>
