<?xml version="1.0" encoding="UTF-8"?>
<!DOCTYPE svg PUBLIC "-//W3C//DTD SVG 1.1//EN" "http://www.w3.org/Graphics/SVG/1.1/DTD/svg11.dtd">
<!-- Creator: CorelDRAW 2020 (64 Bit) -->
<svg xmlns="http://www.w3.org/2000/svg" xml:space="preserve" width="57.5732mm" height="46.1432mm" version="1.1" style="shape-rendering:geometricPrecision; text-rendering:geometricPrecision; image-rendering:optimizeQuality; fill-rule:evenodd; clip-rule:evenodd"
viewBox="0 0 5757.32 4614.32"
 xmlns:xlink="http://www.w3.org/1999/xlink"
 xmlns:xodm="http://www.corel.com/coreldraw/odm/2003">
 <defs>
  <style type="text/css">
   <![CDATA[
    .fil1 {fill:#4B4B4D}
   ]]>
  </style>
 </defs>
 <g id="template">
  <metadata id="CorelCorpID_0Corel-Layer"/>
  <path class="fil0" d="M2450.75 824.1l63.16 -53.27 96.44 -81.38 529.77 4.92 101.79 86.97 58.76 50.12 0.46 1.78 -0.71 -0.21c-9.96,64.34 -25.71,130.83 -48.72,185.88 -51.11,100.4 -111.65,192.12 -210.75,250.79l-56.66 19.45 -232.15 2.63 -48.74 -25c-98.14,-60.38 -157.2,-153.14 -206.7,-254.41 -22.12,-55.45 -36.8,-122.2 -45.73,-186.7l-0.7 0.2 0.48 -1.77z"/>
  <path class="fil0" d="M2916.47 1216.85l88.78 0.78c-9.48,23.07 -28.51,45.13 -20.96,71.52l-232.15 2.63c7.62,-22.77 -9.77,-50.35 -29.93,-76.61l194.26 1.68z"/>
  <path class="fil0" d="M2978.61 827.82c92.46,7.8 210.43,16.46 213.35,7.82 5.58,-16.49 -1.54,-41.34 0,-47.31l-51.84 -93.96 -529.76 -4.91 -64.25 80.39c-3.23,12.5 -2.4,83.2 14.31,86.72l229.97 -28.24 96.62 58.65 91.6 -59.16z"/>
  <path class="fil1" d="M2722.21 1215.17l283.04 2.46c-4.7,-0.04 169.07,-240.04 186.71,-382 0,0 -304.31,-113.74 -642.74,-5.48 2.25,94.09 145.88,309.32 172.99,385.02z"/>
 </g>
</svg>
