<?xml version="1.0" encoding="UTF-8"?>
<!DOCTYPE svg PUBLIC "-//W3C//DTD SVG 1.1//EN" "http://www.w3.org/Graphics/SVG/1.1/DTD/svg11.dtd">
<!-- Creator: CorelDRAW 2020 (64 Bit) -->
<svg xmlns="http://www.w3.org/2000/svg" xml:space="preserve" width="57.5732mm" height="46.1432mm" version="1.1" style="shape-rendering:geometricPrecision; text-rendering:geometricPrecision; image-rendering:optimizeQuality; fill-rule:evenodd; clip-rule:evenodd"
viewBox="0 0 5757.32 4614.32"
 xmlns:xlink="http://www.w3.org/1999/xlink"
 xmlns:xodm="http://www.corel.com/coreldraw/odm/2003">
 <defs>
  <style type="text/css">
   <![CDATA[
    .fil2 {fill:#BDBFC1}
    .fil1 {fill:#A9ABAE}
    .fil0 {fill:#727376}
   ]]>
  </style>
 </defs>
 <g id="Camada_x0020_1">
  <metadata id="CorelCorpID_0Corel-Layer"/>
  <path class="fil0" d="M2535.46 839.55c522.02,-95.16 849.22,-135.08 545.65,361.74l-116.42 76.2 -265.24 -28.96 -163.99 -408.98z"/>
  <g id="_1644933629152">
   <g>
    <path class="fil1" d="M2624.2 723.95l500.45 4.64 19.2 21.01 1.74 2.47c1.59,2.3 3.13,4.59 4.61,6.88l1.2 1.86 0.08 0.13c3.51,5.54 6.69,11.05 9.54,16.52l0.95 1.84 0.01 0.02c1.2,2.36 2.34,4.71 3.42,7.05l0.12 0.26 0.83 1.82c2.45,5.47 4.59,10.91 6.44,16.32l0.03 0.07c6.97,20.45 8.74,39.97 8.29,59.68 -204.36,-68.31 -409.22,-75.11 -614.66,-7.66 0.26,-43.42 24.73,-102.49 57.75,-132.91z"/>
    <path class="fil1" d="M2473.42 851.14l150.78 -127.19c-161.81,195.61 117.9,363.77 87.9,545.39 -92.72,-57.05 -148.51,-144.67 -195.27,-240.34 -20.9,-52.38 -34.77,-115.44 -43.2,-176.37l-0.67 0.18 0.46 -1.67z"/>
    <path class="fil1" d="M3276.33 858.1l-141.92 -121.09c158.64,198.39 -130.53,352.98 -103.44,535.09 93.62,-55.43 150.8,-142.07 199.09,-236.92 21.74,-52.01 36.62,-114.82 46.03,-175.6l0.66 0.2 -0.42 -1.68z"/>
    <path class="fil1" d="M3096.89 1223.76c-62.67,54.23 -140.96,86.18 -225.67,85.45 -84.72,-0.74 -162.48,-34.04 -224.28,-89.35l449.95 3.9z"/>
   </g>
   <g>
    <path class="fil2" d="M2624.2 723.95l500.45 4.64 19.2 21.01 1.74 2.47c1.59,2.3 3.13,4.59 4.61,6.88l1.2 1.86 0.08 0.13c1.09,1.72 22.31,30.03 23.35,31.76 -19.7,-14.37 -41.98,-26.49 -68.95,-27.02l-419.35 -3.64c-62.79,-4.38 -97.91,12.83 -123.03,37.85 8.4,-14.46 49.94,-66.03 60.7,-75.94z"/>
    <path class="fil2" d="M2548.81 787.55l75.39 -63.6c-161.81,195.61 117.9,363.77 87.9,545.39 -10.28,-6.33 -20.11,-13.04 -29.51,-20.08 -5.07,-158.17 -204.03,-279.53 -133.78,-461.71z"/>
    <path class="fil2" d="M3201.23 794.03l-76.58 -65.44c158.65,198.39 -120.77,361.4 -93.68,543.51 10.37,-6.15 20.3,-12.68 29.82,-19.56 7.61,-158.06 207.76,-275.14 140.44,-458.51z"/>
   </g>
  </g>
 </g>
</svg>
