<?xml version="1.0" encoding="UTF-8"?>
<!DOCTYPE svg PUBLIC "-//W3C//DTD SVG 1.1//EN" "http://www.w3.org/Graphics/SVG/1.1/DTD/svg11.dtd">
<!-- Creator: CorelDRAW 2020 (64 Bit) -->
<svg xmlns="http://www.w3.org/2000/svg" xml:space="preserve" width="57.5732mm" height="46.1432mm" version="1.1" style="shape-rendering:geometricPrecision; text-rendering:geometricPrecision; image-rendering:optimizeQuality; fill-rule:evenodd; clip-rule:evenodd"
viewBox="0 0 5757.32 4614.32"
 xmlns:xlink="http://www.w3.org/1999/xlink"
 xmlns:xodm="http://www.corel.com/coreldraw/odm/2003">
 <defs>
  <style type="text/css">
   <![CDATA[
    .fil0 {fill:var(--neutral-fill)}
    .fil1 {fill:#4B4B4D}
   ]]>
  </style>
 </defs>
 <g id="template">
  <metadata id="CorelCorpID_0Corel-Layer"/>
  <path class="fil0" d="M3216.71 750.22l-119.68 -40.05c-48.22,2.51 -93.71,-5.24 -138.23,-11.15 -22.53,-2.77 -50.21,-5.99 -73.94,-6.03 -22.52,-0.04 -49.02,2.88 -73.08,6.15l-1.76 -0.17c-44.32,5.82 -89.66,13.48 -137.75,11.22l-117.71 37.27 -0.25 1.01 -0.71 2.94 -0.69 2.95 -0.65 2.96 -0.63 2.97 -0.59 2.98 -0.58 2.98 -0.55 3 -0.51 3.01 -0.49 3.01 -0.46 3.02 -0.43 3.04 -0.4 3.04 -0.37 3.05 -0.35 3.06 -0.31 3.06 -0.29 3.07 -0.25 3.08 -0.23 3.1 -0.19 3.09 -0.17 3.1 -0.14 3.12 -0.11 3.12 -0.08 3.12 -0.04 3.14 -0.02 3.17 0.44 11.03 1.32 16.66 2.17 16.42 2.99 16.16 3.81 15.89 4.59 15.58 5.35 15.26 6.1 14.92 6.81 14.56 7.52 14.17 8.19 13.77 8.85 13.33 9.48 12.9 10.1 12.42 10.68 11.93 11.27 11.44 11.79 10.89 12.34 10.34 12.83 9.77 13.32 9.18 13.78 8.57 14.22 7.93 14.64 7.27 15.04 6.6 15.41 5.91 15.77 5.18 16.1 4.44 9.76 2.19 -0.1 0.42 0.93 0.19c55.99,10.12 107.69,9.46 155.13,-1.97l3.69 -0.83 16.09 -4.44 15.77 -5.18 15.41 -5.91 15.04 -6.6 14.64 -7.27 14.22 -7.93 13.78 -8.57 13.32 -9.18 12.84 -9.77 12.32 -10.34 11.81 -10.89 11.26 -11.44 10.68 -11.93 10.1 -12.42 9.49 -12.9 8.84 -13.33 8.19 -13.77 7.52 -14.17 6.82 -14.56 6.09 -14.92 5.36 -15.26 4.58 -15.58 3.8 -15.89 3 -16.16 2.17 -16.42 1.31 -16.66 0.45 -16.83 -0.02 -3.18 -0.05 -3.13 -0.07 -3.12 -0.11 -3.13 -0.13 -3.11 -0.17 -3.1 -0.2 -3.09 -0.22 -3.1 -0.26 -3.08 -0.29 -3.07 -0.31 -3.07 -0.35 -3.05 -0.37 -3.05 -0.4 -3.04 -0.43 -3.04 -0.46 -3.02 -0.49 -3.01 -0.51 -3.01 -0.55 -3 -0.57 -2.98 -1.62 -7.25z"/>
  <path class="fil0" d="M1781.79 3825.05l0 -93.42 0 -1732.35c196.18,-270.33 244.95,-688.62 140.31,-977.52l-0.04 -0.15 619.48 -223.91 673.51 -0.25 620.21 224.16 -0.05 0.15c-104.64,288.9 -55.87,707.19 140.32,977.52l0 1826.06c-731.25,0 -1462.5,-0.29 -2193.74,-0.29z"/>
  <path class="fil1" d="M1781.79 3151.59c243.39,0 486.79,0 730.18,0l0 673.53 -730.18 0c0,-224.51 0,-449.02 0,-673.53z"/>
  <polygon class="fil1" points="2511.6,3151.59 3241.78,3151.59 3241.78,3825.12 2511.6,3825.12 "/>
  <polygon class="fil1" points="3243.61,3151.58 3973.79,3151.58 3973.79,3825.11 3243.61,3825.11 "/>
  <path class="fil2" d="M1781.79 3131.55c203.13,101.6 442.77,114.15 730.18,0l0 693.57 -730.18 0c0,-231.19 0,-462.38 0,-693.57z"/>
  <path class="fil2" d="M2511.6 3129.34c203.13,101.6 442.77,114.15 730.18,0l0 693.57 -730.18 0c0,-231.19 0,-462.38 0,-693.57z"/>
  <path class="fil2" d="M3243.62 3131.54c203.13,101.6 442.77,114.15 730.18,0l0 693.57 -730.18 0c0,-231.19 0,-462.38 0,-693.57z"/>
 </g>
</svg>
