<?xml version="1.0" encoding="UTF-8"?>
<!DOCTYPE svg PUBLIC "-//W3C//DTD SVG 1.1//EN" "http://www.w3.org/Graphics/SVG/1.1/DTD/svg11.dtd">
<!-- Creator: CorelDRAW 2020 (64 Bit) -->
<svg xmlns="http://www.w3.org/2000/svg" xml:space="preserve" width="57.5732mm" height="46.1432mm" version="1.1" style="shape-rendering:geometricPrecision; text-rendering:geometricPrecision; image-rendering:optimizeQuality; fill-rule:evenodd; clip-rule:evenodd"
viewBox="0 0 5757.32 4614.32"
 xmlns:xlink="http://www.w3.org/1999/xlink"
 xmlns:xodm="http://www.corel.com/coreldraw/odm/2003">
 <defs>
  <style type="text/css">
   <![CDATA[
    .fil2 {fill:#FEFEFE}
    .fil1 {fill:#4B4B4D}
   ]]>
  </style>
 </defs>
 <g id="template">
  <metadata id="CorelCorpID_0Corel-Layer"/>
  <path class="fil0" d="M2610.35 689.45l538.46 1.17c-111.83,516.86 -501.87,404.39 -538.46,-1.17z"/>
  <path class="fil1" d="M2623.8 773.59l503.02 0.19c-75.74,374.11 -443.53,325.47 -503.02,-0.19z"/>
  <rect class="fil0" x="2802.85" y="1037.09" width="149.74" height="472.66"/>
  <rect class="fil0" x="2802.85" y="1449.11" width="149.74" height="60.64"/>
  <ellipse class="fil2" cx="2880.95" cy="1337.29" rx="33.42" ry="33.41"/>
  <ellipse class="fil2" cx="2882.46" cy="1219.16" rx="33.42" ry="33.41"/>
  <path class="fil0" d="M2610.35 689.45c0,0 15.77,333.09 262.77,346.83l-212.72 153.75c0,0 -192.92,-196.24 -177.49,-386.96l127.44 -113.62z"/>
  <path class="fil0" d="M3148.81 690.62c-12.84,0.82 -31.68,332.48 -269.9,345.66l212.72 153.75c0,0 192.92,-196.24 177.49,-386.96l-120.31 -112.45z"/>
 </g>
</svg>
